<svg xmlns="http://www.w3.org/2000/svg" viewBox="0 0 16.57 14.88"><defs><style>.cls-1{fill:#fff;}.cls-2{fill:none;}.cls-2,.cls-3{stroke:#fff;stroke-miterlimit:10;stroke-width:0.25px;}.cls-3{fill:#0022ea;}</style></defs><g id="Layer_2" data-name="Layer 2"><g id="Spotlight"><path class="cls-1" d="M14.12,0a2.39,2.39,0,0,0-.66.09A2.83,2.83,0,0,0,12,1.2c-.08.12-.09.13-.21.17s-.63.43-1.07,1c-.24.34-.53.78-.7,1.08l-.12.19-.16-.07a2.47,2.47,0,0,0-.8-.18l-.27,0L8,3.93c-.33.29-.64.55-.69.58a.69.69,0,0,0-.13.11l0,.06L7,4.65l-.17,0L5.56,5.77,4.28,6.94,4.2,7a.17.17,0,0,0-.11.14,1,1,0,0,0,.18.54l.23.36A4.9,4.9,0,0,0,5.88,9.41a7.57,7.57,0,0,0,1.42.88,4.56,4.56,0,0,0,1,.33c.34.06.37.06.47,0s.11,0,.11-.07L10,9.15l1-1.38,0-.11-.1-.2a.54.54,0,0,1,0-.12.59.59,0,0,1,.09-.13L11,7.09l.48-.64c.44-.58.47-.62.46-.7a.75.75,0,0,0-.11-.39,3.13,3.13,0,0,0-.86-1l-.07,0,.07-.1c0-.05.08-.1.07-.11a2.67,2.67,0,0,1,.19-.33c.11-.17.22-.36.25-.41s.06-.08.07,0A2.74,2.74,0,0,0,12.69,5a1.89,1.89,0,0,0,.89.34,1.72,1.72,0,0,0,.59,0,2.55,2.55,0,0,0,1.58-.75,2.9,2.9,0,0,0,.79-2.48A2.9,2.9,0,0,0,15.79.71,2.87,2.87,0,0,0,15.05.2,2.82,2.82,0,0,0,14.12,0Z"/><line class="cls-2" x1="3.59" y1="7.62" x2="0.06" y2="9.47"/><line class="cls-3" x1="8.21" y1="11.32" x2="6.83" y2="14.83"/></g></g></svg>